<?xml version="1.0" encoding="utf-8"?>
<!-- Generator: Adobe Illustrator 13.0.0, SVG Export Plug-In . SVG Version: 6.00 Build 14948)  -->
<!DOCTYPE svg PUBLIC "-//W3C//DTD SVG 1.1//EN" "http://www.w3.org/Graphics/SVG/1.1/DTD/svg11.dtd">
<svg version="1.1" id="Layer_1" xmlns="http://www.w3.org/2000/svg" xmlns:xlink="http://www.w3.org/1999/xlink" x="0px" y="0px"
	 width="1000px" height="600px" viewBox="0 0 1000 600" enable-background="new 0 0 1000 600" xml:space="preserve">
<g>
	<defs>
		<rect id="SVGID_1_" width="1000" height="600"/>
	</defs>
	<clipPath id="SVGID_2_">
		<use xlink:href="#SVGID_1_"  overflow="visible"/>
	</clipPath>
	<path clip-path="url(#SVGID_2_)" fill="#FFFFFF" d="M984.398,242.088c-14.996-17.051-32.54-26.186-58.518-20.305
		c21.647-16.569,36.883-37.24,27.972-69.254c-9.237-33.202-43.952-40.092-56.606-39.097c-12.654,0.993-28.969,4.969-36.962,13.586
		c7.906-23.942,0.464-48.073-12.657-60.97c-14.149-13.916-41.389-25.101-69.059-10.803c-18.839,9.732-24.506,24.967-27.881,38.636
		c-5.429-12.673-12.617-38.243-42.241-44.07c-21.065-4.141-44.039,3.563-56.944,17.894c-11.649,12.937-19.255,33.213-10.32,59.643
		c-20.484-18.308-40.462-17.315-56.191-13.088c-16.481,4.426-34.715,20.379-39.463,43.488c-2.072,10.102-3.245,42.748,26.986,61.721
		c-27.972-4.723-40.936,3.005-56.705,22.528c-15.061,18.652-12.3,47.564-4.566,62.142c7.732,14.578,24.715,31.826,50.354,31.826
		h378.27c15.318,0,32.443-4.104,46.289-24.566C999.808,291.217,998.306,257.902,984.398,242.088"/>
	<path clip-path="url(#SVGID_2_)" fill="#F26F21" d="M649.94,153.255l69.018,157.794l-142.396-97.484
		c-35.712-23.659-28.483-64.24-8.661-82.072C595.858,107.85,635.408,116.049,649.94,153.255"/>
	<path clip-path="url(#SVGID_2_)" fill="#C8234A" d="M744.527,116.049l-25.076,176.674l-71.437-167.982
		c-15.476-42.013,19.28-69.509,42.462-69.987C717.017,51.856,750.308,72.124,744.527,116.049"/>
	<path clip-path="url(#SVGID_2_)" fill="#645FA9" d="M853.123,124.248l-70.944,168.475l-22.684-152.059
		c-1.942-23.15,12.544-23.644,17.845-27.975c-0.952-3.39-8.198-3.39-8.198-3.39h-13.5c-1.466-39.595,29.424-56.95,54.53-55.023
		C837.203,55.232,867.613,86.626,853.123,124.248"/>
	<path clip-path="url(#SVGID_2_)" fill="#0088CF" d="M925.532,212.579l-142.368,98.007l67.063-155.881
		c20.28-49.274,67.584-39.61,84.476-20.808C953.029,152.269,958.346,189.413,925.532,212.579"/>
	<path clip-path="url(#SVGID_2_)" fill="#0DB04B" d="M940.498,327.941H775.925l133.656-93.138
		c32.859-21.747,67.63-1.927,76.785,26.525C996.015,293.201,974.267,327.941,940.498,327.941"/>
	<path clip-path="url(#SVGID_2_)" fill="#FCB813" d="M514.311,259.402c12.546-32.797,47.301-44.404,78.173-24.598l133.72,93.138
		H564.018C530.216,327.941,503.661,297.054,514.311,259.402"/>
	<path clip-path="url(#SVGID_2_)" fill="#231F20" d="M25.75,449.885c0,30.209,24.752,85.262,119.062,85.262
		c86.973,0,114.407-39.948,114.407-58.259h-67.276c0,0-3.19,24.167-41.214,24.167c-37.99,0-48.286-31.72-48.286-50.029
		c0-18.356,10.296-48.348,48.286-48.348c38.024,0,41.214,21.066,41.214,21.066h67.276c0-18.309-20.114-57.672-114.407-57.672
		C50.501,366.072,25.75,424.671,25.75,449.885"/>
	<path clip-path="url(#SVGID_2_)" fill="#231F20" d="M731.906,449.885c0,30.209,24.751,85.262,119.046,85.262
		c86.987,0,114.451-39.948,114.451-58.259h-67.322c0,0-3.172,24.167-41.18,24.167c-37.979,0-48.273-31.72-48.273-50.029
		c0-18.356,10.294-48.348,48.273-48.348c38.008,0,41.18,21.066,41.18,21.066h67.322c0-18.309-20.159-57.672-114.451-57.672
		C756.657,366.072,731.906,424.671,731.906,449.885"/>
	<polygon clip-path="url(#SVGID_2_)" fill="#231F20" points="443.259,368.846 443.259,471.247 364.933,368.846 276.774,368.846 
		276.774,530.984 337.176,530.984 337.176,427.506 414.161,530.984 503.707,530.984 503.707,368.846 	"/>
	<path clip-path="url(#SVGID_2_)" fill="#231F20" d="M686.361,444.799c10.988,0,33.985-12.792,33.985-37.514
		c0-35.296-65.582-38.439-75.646-38.439H523.821v162.139H644.7c58.198,0,81.533-18.31,81.533-49.011
		C726.233,451.271,686.361,444.799,686.361,444.799 M587.072,400.442h48.504v0.015c8.2,0,14.89,5.441,14.89,12.129
		c0,6.597-6.689,12.007-14.89,12.007v0.078h-48.504V400.442z M636.933,492.269v0.217H586.58v-29.747h50.353v0.078
		c10.697,0,19.374,6.581,19.374,14.78C656.307,485.703,647.63,492.269,636.933,492.269"/>
	<path clip-path="url(#SVGID_2_)" fill="#063871" d="M130.617,220.824l-48.549-44.156c-3.423-3.022-5.503-7.182-5.503-11.929
		c0-9.203,7.984-16.678,17.785-16.678h53.714v-23.026H65.946c-25.493,0-46.669,17.001-46.669,43.618
		c0,11.39,4.623,21.747,12.268,29.515l57.227,53.45c0,0,9.602,6.906,6.272,18.295c-3.329,11.39-17.939,11.39-23.427,11.39h-52.34
		v46.639h79.421c32.134,0,58.182-24.337,58.182-54.375v-0.417C157.772,250.694,145.597,234.603,130.617,220.824"/>
	<path clip-path="url(#SVGID_2_)" fill="#063871" d="M451.305,220.824l-48.519-44.156c-3.42-3.022-5.517-7.182-5.517-11.929
		c0-9.203,7.983-16.678,17.801-16.678h53.713v-23.026h-82.165c-25.446,0-46.669,17.001-46.669,43.618
		c0,11.39,4.686,21.747,12.314,29.515l57.197,53.45c0,0,9.649,6.906,6.272,18.295c-3.313,11.39-17.924,11.39-23.396,11.39h-52.356
		v46.639h79.451c32.105,0,58.168-24.337,58.168-54.375v-0.417C478.478,250.694,466.317,234.603,451.305,220.824"/>
	<path clip-path="url(#SVGID_2_)" fill="#063871" d="M328.93,269.034c0-24.352-13.748-47.84-41.26-57.164
		c20.823-6.305,31.597-21.471,31.597-42.786c0-14.288-6.813-26.248-17.556-34.047c-15.428-10.542-38.547-9.725-38.547-9.725v-0.045
		h-90.656l0.03,202.644h96.453c8.152-0.372,25.322-2.59,39.225-13.842C320.56,303.311,328.93,287.191,328.93,269.034
		 M221.551,148.431h21.778c3.298,0,26.031,0,27.927,21.918c1.341,15.752-9.448,25.569-26.895,25.569h-22.81V148.431z
		 M247.705,281.333h-26.154v-53.989h25.122c3.299,0,28.682,0,30.548,24.953C278.577,270.144,265.153,281.333,247.705,281.333"/>
</g>
</svg>
